<svg width="41" height="26" viewBox="0 0 41 26" fill="none" xmlns="http://www.w3.org/2000/svg">
<g opacity="0.65">
<path d="M25.0376 19.0422C25.4876 18.9922 25.9376 18.9922 26.4376 18.9922C30.1376 18.9922 33.4376 19.8422 35.6876 21.1422" stroke="black" stroke-opacity="0.87" stroke-miterlimit="10" stroke-linecap="round"/>
<path d="M35.7375 5.79224C33.5375 7.14224 30.1875 7.99224 26.4375 7.99224C22.7375 7.99224 19.4375 7.14224 17.1875 5.84224" stroke="black" stroke-opacity="0.87" stroke-miterlimit="10"/>
<path d="M14.4375 13.4922H38.4375" stroke="black" stroke-opacity="0.87" stroke-miterlimit="10"/>
<path d="M26.4375 1.49219V25.4922" stroke="black" stroke-opacity="0.87" stroke-miterlimit="10"/>
<path d="M24.5875 25.3422C25.1875 25.4422 25.8375 25.4922 26.4375 25.4922C33.0875 25.4922 38.4375 20.1422 38.4375 13.4922C38.4375 6.84219 33.0875 1.49219 26.4375 1.49219C19.7875 1.49219 14.4375 6.84219 14.4375 13.4922C14.4375 14.4922 14.5875 15.4422 14.7875 16.3922" stroke="black" stroke-opacity="0.87" stroke-miterlimit="10" stroke-linecap="round"/>
<path d="M24.8375 25.0922C25.3375 25.3922 25.8875 25.4922 26.4375 25.4922C29.7375 25.4922 32.4375 20.1422 32.4375 13.4922C32.4375 6.84219 29.7375 1.49219 26.4375 1.49219C23.1375 1.49219 20.4375 6.84219 20.4375 13.4922C20.4375 14.1922 20.4875 14.8422 20.5375 15.4922C20.5375 15.5422 20.5375 15.5922 20.5375 15.5922" stroke="black" stroke-opacity="0.87" stroke-miterlimit="10" stroke-linecap="round"/>
</g>
<path opacity="0.8" d="M7.63762 9.94226C9.08762 8.49226 10.3376 7.54226 7.78762 4.34226C5.23762 1.14226 3.48762 3.59226 2.08762 5.04226C0.43762 6.69226 1.98762 12.7423 7.98762 18.7923C13.9876 24.8423 20.1376 26.3923 21.7376 24.7423C23.1376 23.3423 25.6376 21.5923 22.4376 18.9923C19.2376 16.3923 18.2876 17.6923 16.8376 19.1423C15.8376 20.1423 13.2376 18.0423 10.9876 15.7923C8.73762 13.5423 6.63762 10.9423 7.63762 9.94226Z" fill="black" fill-opacity="0.87"/>
</svg>
